HIERARCHY
ROOT Pelvis
{
	OFFSET 0.000000 0.000000 0.000000
	CHANNELS 6 Xposition Yposition Zposition Xrotation Yrotation Zrotation
	JOINT LeftUpLeg_virtual
	{
		OFFSET 0.000000 0.000000 0.000000
		CHANNELS 3 Xrotation Yrotation Zrotation
		JOINT LeftUpLeg
		{
			OFFSET 18.735201 -5.666702 -4.541200
			CHANNELS 3 Xrotation Yrotation Zrotation
			JOINT LeftLeg
			{
				OFFSET -0.021200 -31.938179 0.493100
				CHANNELS 3 Xrotation Yrotation Zrotation
				JOINT LeftFoot
				{
					OFFSET 0.021200 -31.938179 -4.336299
					CHANNELS 3 Xrotation Yrotation Zrotation
					JOINT LeftToeBase
					{
						OFFSET 0.943001 -26.722000 15.023500
						CHANNELS 3 Xrotation Yrotation Zrotation
						End Site
						{
							OFFSET 0 0 0
						}
					}
				}
			}
		}
	}
	JOINT RightUpLeg_virtual
	{
		OFFSET 0.000000 0.000000 0.000000
		CHANNELS 3 Xrotation Yrotation Zrotation
		JOINT RightUpLeg
		{
			OFFSET -18.735201 -5.666702 -4.541200
			CHANNELS 3 Xrotation Yrotation Zrotation
			JOINT RightLeg
			{
				OFFSET 0.018946 -31.938133 0.493100
				CHANNELS 3 Xrotation Yrotation Zrotation
				JOINT RightFoot
				{
					OFFSET -0.018946 -31.938126 -4.336299
					CHANNELS 3 Xrotation Yrotation Zrotation
					JOINT RightToeBase
					{
						OFFSET -0.943001 -26.722004 15.023500
						CHANNELS 3 Xrotation Yrotation Zrotation
						End Site
						{
							OFFSET 0 0 0
						}
					}
				}
			}
		}
	}
	JOINT Hips_virtual
	{
		OFFSET 0.000000 0.000000 0.000000
		CHANNELS 3 Xrotation Yrotation Zrotation
		JOINT Hips
		{
			OFFSET -0.000000 -0.000000 -0.000000
			CHANNELS 3 Xrotation Yrotation Zrotation
			JOINT Spine
			{
				OFFSET 0.000000 10.199997 -0.299500
				CHANNELS 3 Xrotation Yrotation Zrotation
				JOINT Spine1
				{
					OFFSET 0.000000 11.900002 -1.516600
					CHANNELS 3 Xrotation Yrotation Zrotation
					JOINT Spine2
					{
						OFFSET 0.000000 13.600006 -2.842500
						CHANNELS 3 Xrotation Yrotation Zrotation
						JOINT Neck_virtual
						{
							OFFSET 0.000000 0.000000 0.000000
							CHANNELS 3 Xrotation Yrotation Zrotation
							JOINT Neck
							{
								OFFSET 0.000000 9.624100 -2.890100
								CHANNELS 3 Xrotation Yrotation Zrotation
								JOINT Head
								{
									OFFSET 0.000000 14.068802 -1.351900
									CHANNELS 3 Xrotation Yrotation Zrotation
									End Site
									{
										OFFSET 0 0 0
									}
								}
							}
						}
						JOINT LeftShoulder_virtual
						{
							OFFSET 0.000000 0.000000 0.000000
							CHANNELS 3 Xrotation Yrotation Zrotation
							JOINT LeftShoulder
							{
								OFFSET 15.263000 10.923401 -0.547700
								CHANNELS 3 Xrotation Yrotation Zrotation
								JOINT LeftArm
								{
									OFFSET 25.438599 -2.830597 -13.032500
									CHANNELS 3 Xrotation Yrotation Zrotation
									JOINT LeftForeArm
									{
										OFFSET 29.960503 0.000000 0.000000
										CHANNELS 3 Xrotation Yrotation Zrotation
										JOINT LeftHand
										{
											OFFSET 27.849251 0.000000 0.000000
											CHANNELS 3 Xrotation Yrotation Zrotation
											End Site
											{
												OFFSET 0 0 0
											}
										}
									}
								}
							}
						}
						JOINT RightShoulder_virtual
						{
							OFFSET 0.000000 0.000000 0.000000
							CHANNELS 3 Xrotation Yrotation Zrotation
							JOINT RightShoulder
							{
								OFFSET -15.263000 10.923401 -0.547700
								CHANNELS 3 Xrotation Yrotation Zrotation
								JOINT RightArm
								{
									OFFSET -25.438599 -2.830597 -13.032500
									CHANNELS 3 Xrotation Yrotation Zrotation
									JOINT RightForeArm
									{
										OFFSET -29.960503 0.000000 0.000000
										CHANNELS 3 Xrotation Yrotation Zrotation
										JOINT RightHand
										{
											OFFSET -27.849251 0.000000 0.000000
											CHANNELS 3 Xrotation Yrotation Zrotation
											End Site
											{
												OFFSET 0 0 0
											}
										}
									}
								}
							}
						}
					}
				}
			}
		}
	}
}
MOTION
Frames: 4
Frame Time: 0.03333333
0.588629 54.514626 13.162907 0.000000 0.000000 0.000000 10.257384 1.126695 2.003762 -111.355381 -11.560659 10.418784 87.499354 5.171015 -0.152068 15.737907 -7.724713 -9.523936 0.000000 0.000000 0.000000 10.257384 1.126695 2.003762 -114.282254 15.979122 -7.414554 89.973577 -3.678652 -1.408409 16.557256 0.964155 11.587852 0.000000 0.000000 0.000000 10.257384 1.126695 2.003762 0.000001 0.000000 0.000000 6.860810 -1.684276 -1.447195 12.577068 -1.034805 -1.095899 0.000000 0.000000 0.000000 12.570156 -1.077110 -1.099538 -0.170522 -0.261820 -0.147335 0.000000 0.000000 0.000000 12.570156 -1.077110 -1.099538 2.038154 -12.501288 5.547276 -60.008505 -29.861700 -11.556460 -180.000005 -65.698790 -179.999991 0.000000 0.000000 0.000000 12.570156 -1.077110 -1.099538 1.433087 10.850712 -3.496002 -73.306877 34.141257 27.922119 -179.999991 62.742179 179.999991 0.000000 0.000000 0.000000 
0.612892 54.435478 13.118136 0.000000 0.000000 0.000000 10.527494 1.226958 2.004983 -111.740665 -11.470881 10.286682 87.362054 5.229145 -0.147183 15.962173 -7.736348 -9.386791 0.000000 0.000000 0.000000 10.527494 1.226958 2.004983 -114.629180 16.107838 -7.395088 89.939385 -3.762852 -1.407907 16.698458 0.989184 11.615732 0.000000 0.000000 0.000000 10.527494 1.226958 2.004983 0.000000 0.000000 0.000000 7.086588 -1.643415 -1.444465 12.767364 -1.020628 -1.140127 0.000000 0.000000 0.000000 12.760481 -1.062331 -1.143889 0.521330 -0.297262 -0.209163 0.000000 0.000000 0.000000 12.760481 -1.062331 -1.143889 2.068328 -12.394304 6.151576 -58.624449 -28.929895 -12.183163 179.999964 -65.051965 179.999964 0.000000 0.000000 0.000000 12.760481 -1.062331 -1.143889 1.461482 11.134550 -3.330572 -71.860482 33.821669 27.199852 -180.000005 62.565503 179.999991 0.000000 0.000000 0.000000 
0.641462 54.356796 13.100548 0.000000 0.000000 0.000000 10.817021 1.330164 2.033688 -112.112986 -11.374708 10.163350 87.279361 5.286077 -0.145619 16.105262 -7.744757 -9.328421 0.000000 0.000000 0.000000 10.817021 1.330164 2.033688 -115.005564 16.291828 -7.388828 89.966111 -3.805840 -1.406574 16.790207 1.009949 11.669178 0.000000 0.000000 0.000000 10.817021 1.330164 2.033688 0.000001 0.000000 0.000000 7.323624 -1.595626 -1.448033 12.972735 -0.981566 -1.186087 0.000000 0.000000 0.000000 12.966026 -1.022760 -1.189411 1.250098 -0.339303 -0.282469 0.000000 0.000000 0.000000 12.966026 -1.022760 -1.189411 2.114945 -12.310446 6.918394 -56.643872 -27.956553 -13.096895 179.999991 -64.332302 -179.999991 0.000000 0.000000 0.000000 12.966026 -1.022760 -1.189411 1.487706 11.465028 -3.085988 -69.923099 33.437895 26.381901 -179.999937 62.384038 179.999937 0.000000 0.000000 0.000000 
0.667188 54.298279 13.103962 0.000000 0.000000 0.000000 11.096253 1.426184 2.069562 -112.420283 -11.293995 10.071031 87.235845 5.325980 -0.147585 16.161527 -7.749328 -9.357767 0.000000 0.000000 0.000000 11.096253 1.426184 2.069562 -115.340312 16.484020 -7.396665 90.025841 -3.819310 -1.403829 16.817266 1.022771 11.751583 0.000000 0.000000 0.000000 11.096253 1.426184 2.069562 -0.000001 0.000000 0.000000 7.559229 -1.544235 -1.456326 13.167893 -0.921942 -1.227742 0.000000 0.000000 0.000000 13.161510 -0.962646 -1.229826 1.940805 -0.382041 -0.356007 0.000000 0.000000 0.000000 13.161510 -0.962646 -1.229826 2.167035 -12.215279 7.794456 -54.283229 -27.085353 -14.223965 -180.000005 -63.627522 180.000005 0.000000 0.000000 0.000000 13.161510 -0.962646 -1.229826 1.506031 11.775372 -2.798577 -67.693616 33.040343 25.501042 -179.999937 62.236793 179.999937 0.000000 0.000000 0.000000 
